<?xml version="1.0" encoding="UTF-8"?>
<svg id="Layer_2" data-name="Layer 2" xmlns="http://www.w3.org/2000/svg" viewBox="0 0 540.13 142.75">
  <defs>
    <style>
      .cls-1, .cls-2 {
        fill: #00a79d;
      }

      .cls-3 {
        font-family: Brevia-BlackItalic, Brevia;
        font-size: 100px;
        font-style: italic;
        font-weight: 800;
      }

      .cls-4 {
        letter-spacing: 0em;
      }

      .cls-4, .cls-5 {
        fill: #2bb673;
      }

      .cls-5, .cls-2 {
        stroke-width: 0px;
      }
    </style>
  </defs>
  <g id="Layer_1-2" data-name="Layer 1">
    <g>
      <g>
        <g>
          <path class="cls-5" d="M50.51,15.93c.24,7.58-7.75,17.08-10.54,24.23-5.49,14.06-4.86,29.47,1.94,42.95,8.72,17.31,25.24,27.49,43.97,31.06,1.2,6.83,1.97,7.94-2.73,8.69-4.41.71-12.32-.41-16.64-1.55C28.55,111.28,6.48,68.72,23.51,32.54c2.8-5.94,9.3-14.42,14.75-18.13,2.56-1.75,5.43-2.45,8.09-3.95,2.74.18,4.08,3.05,4.16,5.47Z"/>
          <path class="cls-2" d="M39.74,10.1c.36.06.64.15.45.51-7.01,2.66-15.18,12.64-18.5,19.16-19.07,37.54,3.04,82.34,42.71,93.56,5.13,1.45,12.7,2.72,17.98,1.97-24.15,11.5-54.14-1.06-69.36-21.53C-6.63,77.35-4.9,35.67,24.12,16.58c3.7-2.43,13.98-6.75,15.62-6.48Z"/>
          <path class="cls-2" d="M50.51,15.93c-.08-2.42-1.42-5.28-4.16-5.47.02-.01-.41-.24-.12-.4,2.32-1.31,4.95-2.2,7.25-3.6,2.26-1.37,8.18-6.02,8.68-6.21,3.62-1.39,9.92,3.18,7.13,6.52-.69.82-15.8,3.63-18.78,9.16Z"/>
          <path class="cls-2" d="M98.54,112.02c2.74.25,4.74,4.78,2.78,7.12-.89,1.06-10.21,2.92-12.19,4.13.42-2.81.47-5.7-.15-8.49,4.47.05,9.05-2.8,9.55-2.75Z"/>
        </g>
        <g>
          <path class="cls-5" d="M82.8,57.93v-.18c3.71-6.8,2.53-14.14,13.75-19.52-.35,12.75-9.84,14.74-13.75,19.69Z"/>
          <path class="cls-5" d="M114.91,58.11v.18l-1.51-1.77c-6.73-4.91-12.66-9.27-12.42-18.27,11.42,5.57,9.62,12.63,13.93,19.87Z"/>
          <path class="cls-5" d="M124.14,27.77h.18c-5.79,2.27-10.9,11.21-22.71,6.83,8.4-8.18,12.78-5.09,22.53-6.83Z"/>
          <path class="cls-5" d="M73.75,27.94v-.18c8.3,1.78,14.8-1.35,21.82,7.01-10.04,2.98-14.21-1.56-21.82-6.83Z"/>
          <path class="cls-5" d="M98.94,9.49c.36,6.77,6.27,13.54-.44,23.42-6.52-10.03-.35-15.44.27-23.42h.18Z"/>
        </g>
      </g>
      <text class="cls-3" transform="translate(140.54 113.05)"><tspan class="cls-1" x="0" y="0">Noor</tspan><tspan class="cls-4" x="215.6" y="0">ish</tspan></text>
    </g>
  </g>
</svg>
